<svg xmlns="http://www.w3.org/2000/svg" width="500" height="500" viewBox="0 0 500 500" version="1.1"><path d="M 116.500 109.842 C 112.590 112.232, 111.048 114.175, 109.511 118.647 C 108.403 121.868, 107.528 122.574, 102.287 124.472 C 88.989 129.287, 76.166 140.685, 69.107 153.967 C 66.310 159.227, 63.680 168.054, 62.465 176.250 L 61.909 180 53.205 180.032 C 43.888 180.066, 41.749 180.901, 40.140 185.132 C 38.787 188.691, 39.859 192.744, 42.756 195.023 C 45.120 196.882, 46.887 197, 72.396 197 L 99.523 197 107.823 204.637 C 115.516 211.716, 116.600 213.226, 122.633 225.266 C 126.214 232.411, 128.773 238.569, 128.322 238.951 C 127.870 239.332, 125.587 241.112, 123.250 242.906 C 119.731 245.607, 119 246.750, 119 249.549 C 119 251.906, 119.605 253.254, 121 254 C 122.126 254.603, 123 256.094, 123 257.413 C 123 260.696, 125.273 262.216, 129.622 261.841 C 133.255 261.528, 133.470 261.707, 138.578 269.294 C 145.777 279.985, 151.320 290.922, 155.197 302.080 C 158.456 311.463, 158.469 311.576, 158.485 331 C 158.493 341.725, 158.098 356.586, 157.606 364.024 L 156.712 377.548 159.485 378.811 C 162.996 380.411, 163.274 380.083, 161.855 376.013 C 160.987 373.523, 160.979 369.205, 161.826 358.601 C 164.642 323.314, 164.273 315.721, 158.966 299.789 C 155.347 288.926, 150.922 280.107, 143.196 268.363 L 137.185 259.226 150.656 250.113 C 158.065 245.101, 164.436 241.018, 164.813 241.040 C 165.705 241.091, 180.767 265.786, 183.945 272.406 C 186.310 277.332, 195.880 287.912, 201 291.260 L 203.500 292.895 200.500 292.963 C 196.147 293.061, 195.429 293.823, 193.158 300.748 C 185.385 324.456, 183.235 354.325, 187.436 380.273 C 189.025 390.090, 189.406 391, 191.935 391 C 193.640 391, 193.670 390.614, 192.414 384.750 C 189.714 372.133, 188.632 352.734, 189.874 339.170 C 191.001 326.847, 194.392 309.604, 197.280 301.500 L 198.706 297.500 209.103 297.640 C 214.821 297.717, 224.675 297.870, 231 297.980 C 240.417 298.144, 243.749 297.787, 249.396 296.005 L 256.291 293.830 259.274 296.813 L 262.257 299.796 259.629 303.242 C 258.183 305.138, 257 307.627, 257 308.773 C 257 310.867, 259.399 314, 261.002 314 C 261.474 314, 262.005 314.967, 262.180 316.148 C 262.648 319.290, 265.313 320.630, 268.697 319.425 C 271.305 318.497, 271.737 318.743, 274.894 322.964 C 276.761 325.459, 280.636 329.975, 283.506 333 L 288.723 338.500 291.439 355.238 C 292.933 364.444, 294.029 373.444, 293.874 375.238 C 293.564 378.834, 294.226 379.533, 296.655 378.173 C 298.799 376.973, 298.619 370.686, 296.034 356.500 C 293.247 341.201, 293.121 341.931, 298.240 343.695 C 308.852 347.351, 319.834 340.687, 323.118 328.599 C 324.732 322.656, 323.654 308.636, 321.058 301.798 C 318.464 294.968, 311.874 287.347, 303.848 281.897 L 298 277.925 298 271.594 C 298 265.446, 298.127 265.136, 302.399 260.864 C 308.044 255.219, 309.722 249.749, 308.153 242.106 C 307.074 236.850, 307.121 236.626, 310.015 233.330 C 311.648 231.470, 313.253 228.272, 313.580 226.224 L 314.176 222.500 320.338 222.419 C 327.562 222.324, 331.391 220.596, 335.996 215.352 C 343.592 206.701, 345.485 194.917, 340.616 186.607 C 337.193 180.766, 330.524 175.025, 322.675 171.161 L 316.281 168.013 315.708 162.459 C 314.320 149.007, 301.663 138.087, 283.748 134.886 C 278.228 133.899, 272.668 133.905, 256.352 134.913 L 235.881 136.177 230.690 131.317 C 224.303 125.336, 217.286 120.818, 208.895 117.285 C 203.359 114.954, 201.089 114.585, 192 114.546 C 182.497 114.504, 181.025 114.753, 176.500 117.164 C 171.307 119.932, 165.995 124.469, 162.267 129.321 L 160.100 132.143 155.457 129.422 C 152.904 127.926, 148.333 125.693, 145.299 124.460 C 140.443 122.486, 139.468 121.590, 137.142 116.968 C 132.938 108.614, 123.715 105.430, 116.500 109.842 M 121.500 112.782 C 118.858 113.327, 114.001 117.960, 113.998 119.937 C 113.996 121.271, 115.458 121.454, 123.989 121.184 L 133.983 120.868 132.577 118.148 C 130.671 114.463, 125.498 111.957, 121.500 112.782 M 184.500 118.879 C 176.518 120.988, 166.571 129.127, 162.607 136.793 C 156.501 148.600, 159.635 162.671, 171.218 175.466 L 175.519 180.216 179.010 178.182 C 194.820 168.966, 224.911 168.300, 250.250 176.604 C 253.726 177.743, 255 178.675, 255 180.080 C 255 182.254, 253.403 182.489, 249.315 180.917 C 235.452 175.586, 210.247 173.409, 196.860 176.388 C 187.884 178.385, 177.558 183.089, 176.078 185.855 C 174.044 189.654, 175.278 199.262, 178.335 203.443 C 179.641 205.230, 179.945 205.205, 187.159 202.714 C 200.101 198.245, 210.962 196.692, 225 197.303 C 249.323 198.362, 268.089 205.849, 289.177 222.909 C 293.847 226.686, 299.179 230.559, 301.027 231.514 C 304.369 233.242, 304.399 233.237, 306.693 230.570 C 309.592 227.201, 309.721 221.695, 307.007 217.243 C 304.570 213.247, 296.960 205.813, 291.250 201.852 C 286.960 198.876, 285.655 196, 288.596 196 C 291.908 196, 303.636 205.550, 308.155 211.925 C 312.403 217.919, 312.493 217.967, 319.602 217.985 C 324.307 217.996, 326.475 217.480, 329.071 215.731 C 334.266 212.230, 338.312 204.901, 338.766 198.173 C 339.100 193.207, 338.771 191.913, 336.122 187.791 C 334.458 185.201, 331.162 181.657, 328.798 179.916 C 324.587 176.813, 316.125 172.507, 315.535 173.166 C 315.371 173.350, 313.874 176.200, 312.209 179.500 C 308.795 186.263, 302.537 194, 300.481 194 C 297.615 194, 298.210 192.066, 302.860 186.272 C 316.568 169.192, 313.919 152.580, 296.043 143.522 C 286.031 138.448, 279.480 137.616, 260.703 139.030 C 233.791 141.057, 203 138.096, 203 133.481 C 203 131.228, 204.402 131.023, 209.900 132.474 C 212.782 133.234, 218.145 134.135, 221.820 134.477 L 228.500 135.098 225.328 132.299 C 213.992 122.296, 195.086 116.082, 184.500 118.879 M 110.800 126.486 C 97.318 129.904, 83.104 139.929, 75.965 151.054 C 71.854 157.460, 68.201 167.436, 67.367 174.532 L 66.725 180 117.886 180 L 169.047 180 165.141 175.059 C 155.716 163.135, 152.731 148.857, 157.389 137.974 C 158.245 135.974, 149.418 130.562, 140.808 127.810 C 132.595 125.184, 118.405 124.558, 110.800 126.486 M 44.384 186.442 C 44.080 187.234, 43.987 188.697, 44.179 189.692 C 44.507 191.396, 46.852 191.513, 85.013 191.727 L 125.500 191.953 127.124 188.477 L 128.747 185 86.842 185 C 51.270 185, 44.854 185.218, 44.384 186.442 M 141.876 188.467 L 143.500 191.935 156.582 191.967 L 169.664 192 170.739 188.500 L 171.813 185 156.033 185 L 140.253 185 141.876 188.467 M 131.713 188.621 C 131.321 189.013, 131 190.771, 131 192.527 C 131 195.634, 130.856 195.739, 125.750 196.352 C 122.862 196.699, 117.384 196.987, 113.577 196.991 L 106.653 197 114.077 204.750 C 120.141 211.082, 122.500 214.559, 126.964 223.750 C 129.969 229.938, 132.766 235, 133.179 235 C 133.733 235, 149.219 225.383, 151.836 223.414 C 152.021 223.274, 149.390 217.387, 145.988 210.330 C 142.587 203.274, 139.285 195.475, 138.652 193 C 137.704 189.298, 137.050 188.448, 134.963 188.204 C 133.567 188.041, 132.104 188.229, 131.713 188.621 M 145 196.989 C 145 197.533, 147.577 203.156, 150.727 209.484 C 155.763 219.600, 156.699 220.907, 158.477 220.297 C 163.449 218.591, 167.974 220.522, 168.032 224.372 C 168.049 225.543, 168.724 227.374, 169.532 228.441 C 171.312 230.794, 171.405 233.378, 169.804 235.942 C 168.834 237.495, 168.963 238.516, 170.486 241.344 C 175.533 250.715, 175.504 250.790, 175.452 228.242 C 175.413 211.458, 175.106 206.928, 173.842 204.500 C 172.983 202.850, 171.984 200.262, 171.621 198.750 L 170.962 196 157.981 196 C 150.090 196, 145 196.388, 145 196.989 M 216 208.075 C 207.976 213.721, 197.094 217.976, 187.240 219.319 L 178.721 220.481 179.319 233.491 C 181.169 273.712, 198.182 294.030, 229.978 293.989 C 238.967 293.977, 246.004 293.156, 245.994 292.119 C 245.990 291.779, 244.672 290.752, 243.064 289.837 C 236.684 286.207, 235.085 275.732, 240.097 270.397 C 241.378 269.034, 242.892 266.490, 243.463 264.744 C 244.867 260.445, 250.198 257, 255.445 257 L 259.595 257 259.181 250.502 C 258.871 245.628, 259.177 243.379, 260.407 241.502 C 262.744 237.935, 266.616 238.162, 268.797 241.994 C 270.792 245.501, 270.791 245.501, 273.885 243.122 C 276.003 241.493, 276.194 240.777, 275.588 236.740 C 275.023 232.972, 274.472 232.084, 272.370 231.557 C 268.931 230.694, 262.253 226.475, 258 222.478 C 254.782 219.454, 253.887 219.160, 246.903 218.833 C 240.561 218.535, 238.498 217.977, 234.422 215.457 C 231.736 213.797, 228.180 210.567, 226.519 208.280 C 224.859 205.993, 223.050 204.141, 222.500 204.163 C 221.950 204.186, 219.025 205.946, 216 208.075 M 232.500 207.980 C 234.150 209.739, 236.850 211.891, 238.500 212.762 C 242.953 215.114, 252.496 214.822, 258 212.167 C 261.647 210.408, 261.931 210.104, 259.500 210.564 C 247.096 212.914, 240.392 212.086, 233.299 207.330 L 229.500 204.782 232.500 207.980 M 184.535 208.445 C 182.788 209.229, 181.283 210.849, 180.872 212.388 C 180.198 214.908, 180.325 215, 184.481 215 C 189.386 215, 199.810 211.922, 205 208.941 C 207.389 207.569, 207.706 207.180, 206 207.716 C 203.087 208.629, 192.411 208.644, 189.500 207.737 C 188.400 207.395, 186.166 207.713, 184.535 208.445 M 200.443 218.418 C 197.521 220.554, 199.403 221.464, 207.073 221.622 C 212.285 221.729, 214 221.431, 214 220.417 C 214 217.145, 204.167 215.695, 200.443 218.418 M 240.500 222.377 C 237.154 224.867, 238.932 225.691, 250.899 227.198 C 254.129 227.605, 254.673 225.481, 251.812 223.638 C 248.122 221.260, 242.798 220.667, 240.500 222.377 M 195.745 225.133 C 196.022 226.194, 197.206 227.770, 198.375 228.635 C 200.473 230.190, 200.465 230.204, 197.750 229.744 C 194.592 229.208, 194.371 229.648, 196.575 232.083 C 197.642 233.262, 198.207 236.046, 198.325 240.709 C 198.525 248.568, 200.500 252.586, 204.683 253.635 C 210.623 255.126, 215.735 243.734, 213.089 234.903 C 211.738 230.393, 208.524 227.010, 205.561 226.978 C 204.428 226.966, 201.642 226.112, 199.371 225.081 C 195.308 223.236, 195.249 223.237, 195.745 225.133 M 155.587 226.505 C 145.325 231.961, 123 247.834, 123 249.674 C 123 251.417, 128.882 249.090, 133.629 245.469 C 137.281 242.684, 140 242.268, 140 244.494 C 140 246.046, 133.177 251.492, 129.950 252.516 C 128.934 252.838, 127.813 254.013, 127.460 255.127 C 125.725 260.593, 130.309 258.707, 148.680 246.394 C 157.381 240.562, 165.064 235.074, 165.754 234.199 C 168.056 231.277, 165.362 230.814, 161.461 233.462 C 159.364 234.885, 157.165 235.888, 156.574 235.692 C 154.655 235.053, 154.834 232.188, 156.832 231.553 C 159.648 230.659, 164.219 226.163, 163.497 224.996 C 162.537 223.442, 160.680 223.797, 155.587 226.505 M 206.384 232.442 C 205.408 234.984, 206.459 237.491, 208.630 237.802 C 211.054 238.150, 212.282 235.256, 210.820 232.642 C 209.685 230.615, 207.129 230.499, 206.384 232.442 M 289.082 235.750 C 287.539 237.013, 285.976 241.240, 283.472 250.931 C 281.562 258.319, 280.020 264.619, 280.044 264.931 C 280.069 265.244, 281.002 263.769, 282.118 261.653 C 284.244 257.622, 284.423 257.588, 290.558 260.061 C 296.790 262.573, 303.025 256.744, 303.775 247.705 C 304.265 241.789, 302.419 236.830, 299.055 235.030 C 296.126 233.462, 291.468 233.798, 289.082 235.750 M 202.459 237.067 C 201.539 238.556, 202.606 239.365, 204.520 238.631 C 205.404 238.292, 205.847 237.561, 205.504 237.007 C 204.694 235.696, 203.289 235.723, 202.459 237.067 M 290.127 238.096 C 285.254 242.636, 284.986 249.759, 289.529 254.027 C 291.392 255.778, 292.315 256.085, 293.162 255.238 C 294.009 254.391, 293.879 253.464, 292.649 251.587 C 291.742 250.203, 291.030 247.817, 291.068 246.285 C 291.134 243.559, 291.158 243.548, 292.220 245.750 C 292.817 246.988, 293.926 248, 294.684 248 C 296.895 248, 297.356 245.192, 295.587 242.492 C 293.766 239.713, 294.093 239.417, 296.989 241.225 C 298.515 242.178, 299.216 242.184, 300.151 241.249 C 301.087 240.313, 300.947 239.599, 299.521 238.024 C 297.155 235.408, 292.978 235.441, 290.127 238.096 M 234.223 240.557 C 233 241.413, 232 242.763, 232 243.557 C 232 245.186, 235.551 245.536, 236.500 244 C 237.787 241.917, 242.616 242.990, 245.500 246 C 248.749 249.392, 249.800 249.684, 250.664 247.434 C 251.039 246.455, 250.017 244.581, 247.936 242.434 C 245.215 239.627, 243.863 239, 240.526 239 C 238.282 239, 235.445 239.701, 234.223 240.557 M 263.479 245.263 C 262.344 249.731, 263.873 256.759, 266.635 259.769 L 269.141 262.500 268.681 256.418 C 268.427 253.073, 267.311 248.573, 266.200 246.418 L 264.180 242.500 263.479 245.263 M 274.438 249.195 C 273.684 251.570, 273.659 265.992, 274.408 266.741 C 275.111 267.444, 278.185 252.334, 277.831 249.916 C 277.377 246.820, 275.330 246.385, 274.438 249.195 M 216 260.821 C 216 265.726, 221.052 274.281, 225.125 276.273 C 229.292 278.310, 233.153 277.452, 234.953 274.088 C 236.652 270.914, 237.273 263.758, 236.112 260.750 C 235.056 258.017, 234.991 258, 225.525 258 L 216 258 216 260.821 M 249.306 263.430 C 245.492 266.734, 247.161 268.246, 255.235 268.800 C 263.108 269.339, 265 270.870, 265 276.700 C 265 282.326, 261.714 286, 256.682 286 C 252.125 286, 248 281.955, 248 277.486 C 248 270.705, 242.707 270.713, 241.435 277.495 C 240.610 281.894, 242.215 284.559, 247.231 287.118 C 250.620 288.847, 252.570 289.148, 257.709 288.735 C 264.501 288.190, 266.147 289.076, 263.590 291.901 C 262.112 293.534, 262.124 293.803, 263.744 295.268 C 265.378 296.747, 265.932 296.480, 271.502 291.526 L 277.500 286.192 275.190 283.717 C 273.919 282.356, 272.119 281.300, 271.190 281.371 C 269.831 281.475, 269.386 280.302, 268.915 275.386 C 268.264 268.591, 265.374 263.473, 261.317 261.931 C 256.944 260.268, 252.285 260.850, 249.306 263.430 M 221 263.500 C 221 264.652, 222.278 265, 226.500 265 C 230.722 265, 232 264.652, 232 263.500 C 232 262.348, 230.722 262, 226.500 262 C 222.278 262, 221 262.348, 221 263.500 M 226.064 268.956 C 224.874 269.695, 224.853 270.117, 225.937 271.424 C 227.738 273.594, 229.717 273.397, 231.046 270.914 C 232.393 268.397, 231.592 267.264, 229.621 268.899 C 228.720 269.647, 228.067 269.712, 227.847 269.074 C 227.634 268.455, 226.944 268.409, 226.064 268.956 M 252 275.845 C 252 281.763, 259.224 283.938, 260.606 278.436 C 261.623 274.381, 260.461 273, 256.031 273 C 252.268 273, 252 273.189, 252 275.845 M 278.128 276.364 L 275.989 278.641 278.422 280.927 L 280.855 283.212 284.547 280.396 C 286.949 278.564, 287.761 277.431, 286.870 277.153 C 286.116 276.918, 284.323 276.132, 282.884 275.406 C 280.530 274.219, 280.052 274.316, 278.128 276.364 M 286.827 283.718 C 281.569 288.014, 267.612 301.234, 264.043 305.299 C 259.605 310.353, 262.407 310.154, 268.263 305 C 270.762 302.800, 273.300 301, 273.903 301 C 276.518 301, 274.658 305.186, 270.500 308.662 C 265.266 313.037, 264.090 317.043, 268.750 314.624 C 272.956 312.440, 296.405 289.464, 295.659 288.257 C 295.255 287.603, 293.808 288.311, 291.896 290.098 C 288.395 293.367, 287.195 293.672, 286.362 291.501 C 286.015 290.597, 287.021 288.849, 288.893 287.100 C 291.854 284.334, 293.048 281, 291.077 281 C 290.569 281, 288.656 282.223, 286.827 283.718 M 298.373 284.767 C 300.166 286.837, 300.226 289.215, 298.581 293.094 C 298.092 294.248, 299.399 295.816, 303.307 298.767 C 308.928 303.010, 315 311.010, 315 314.171 C 315 317.493, 312.386 316.076, 309.070 310.958 C 306.215 306.552, 296.654 298, 294.583 298 C 294.179 298, 289.625 301.898, 284.464 306.663 L 275.080 315.327 276.790 318.291 C 279.760 323.441, 292.140 336.031, 296.339 338.173 C 307.365 343.798, 317.844 337.097, 319.566 323.321 C 320.409 316.570, 317.905 304.220, 314.523 298.449 C 311.935 294.032, 305.966 288.430, 299.814 284.644 L 296.500 282.604 298.373 284.767 M 200 312 C 198.889 313.111, 198 315.333, 198 317 C 198 318.667, 198.889 320.889, 200 322 C 201.111 323.111, 203.333 324, 205 324 C 206.667 324, 208.889 323.111, 210 322 C 211.111 320.889, 212 318.667, 212 317 C 212 315.333, 211.111 313.111, 210 312 C 208.889 310.889, 206.667 310, 205 310 C 203.333 310, 201.111 310.889, 200 312 M 202.389 315.430 C 201.393 318.025, 202.788 320.169, 205.246 319.820 C 206.898 319.585, 207.500 318.833, 207.500 317 C 207.500 315.167, 206.898 314.415, 205.246 314.180 C 203.893 313.988, 202.750 314.488, 202.389 315.430 M 199.364 336.170 C 191.509 339.973, 196.974 352.324, 205.034 348.986 C 210.748 346.619, 210.965 338.672, 205.385 336.130 C 202.480 334.806, 202.176 334.808, 199.364 336.170 M 200.547 340.342 C 198.451 341.875, 198.981 344.672, 201.555 345.659 C 203.942 346.576, 206.744 343.402, 205.412 341.291 C 203.954 338.981, 202.734 338.743, 200.547 340.342 M 198 364 C 195.446 366.554, 195.355 372.106, 197.829 374.345 C 200.446 376.714, 205.505 376.447, 207.961 373.811 C 213.986 367.345, 204.247 357.753, 198 364 M 200.389 367.430 C 199.393 370.025, 200.788 372.169, 203.246 371.820 C 204.898 371.585, 205.500 370.833, 205.500 369 C 205.500 367.167, 204.898 366.415, 203.246 366.180 C 201.893 365.988, 200.750 366.488, 200.389 367.430" stroke="none" fill="#292c29" fill-rule="evenodd"/><path d="M 218.035 54.832 C 213.616 68.490, 210 80.190, 210 80.832 C 210 81.580, 211.959 82, 215.442 82 L 220.884 82 222.225 77.250 L 223.567 72.500 230.486 72.500 L 237.404 72.500 238.496 77 L 239.587 81.500 245.294 81.800 C 248.432 81.965, 251 81.689, 251 81.187 C 251 80.389, 247.333 67.922, 238.371 38.250 L 235.879 30 230.974 30 L 226.069 30 218.035 54.832 M 182 35.195 C 174.575 36.846, 168.411 38.278, 168.302 38.379 C 168.024 38.637, 178.737 88.075, 179.156 88.466 C 179.345 88.642, 185.938 87.401, 193.806 85.707 L 208.113 82.627 207.442 78.563 C 207.073 76.329, 206.584 74.298, 206.354 74.051 C 206.124 73.805, 202.086 74.403, 197.381 75.381 C 192.676 76.359, 188.528 76.861, 188.164 76.497 C 186.826 75.159, 185.159 65.520, 186.158 64.902 C 186.698 64.568, 190.275 63.735, 194.107 63.050 C 199.803 62.032, 200.984 61.504, 200.584 60.153 C 200.315 59.244, 199.800 57.263, 199.439 55.750 C 198.687 52.595, 198.550 52.576, 190.500 54.520 C 187.200 55.317, 184.200 55.976, 183.833 55.984 C 183.096 56.002, 180.734 45.933, 181.334 45.333 C 181.541 45.126, 185.460 44.150, 190.043 43.164 C 194.626 42.178, 198.540 40.880, 198.741 40.278 C 199.286 38.641, 197.549 32.669, 196.454 32.416 C 195.929 32.294, 189.425 33.545, 182 35.195 M 261.138 57.235 C 257.732 70.581, 254.957 82.023, 254.972 82.662 C 254.995 83.622, 260.785 85.336, 264.447 85.466 C 264.968 85.485, 266.334 81.707, 267.482 77.072 C 268.631 72.436, 270.004 68.506, 270.535 68.338 C 272.884 67.594, 274.140 70.267, 275.557 79.025 C 276.392 84.186, 277.236 88.569, 277.434 88.767 C 278.109 89.442, 287.878 91.788, 288.292 91.374 C 288.519 91.147, 288.156 87.708, 287.486 83.731 C 284.843 68.055, 284.755 69.342, 288.618 67.063 C 295.273 63.137, 298.153 51.044, 294.040 44.299 C 291.645 40.369, 288.785 38.851, 278.500 36.046 C 274.100 34.846, 269.787 33.663, 268.916 33.417 C 267.613 33.050, 266.230 37.283, 261.138 57.235 M 273.770 51.745 C 272.882 55.454, 272.309 58.642, 272.495 58.829 C 273.610 59.943, 281.179 60.096, 282.464 59.030 C 284.263 57.537, 285.434 51.941, 284.537 49.118 C 284 47.423, 279.011 45.036, 275.942 45.006 C 275.635 45.003, 274.657 48.035, 273.770 51.745 M 228.700 53.448 C 227.765 56.957, 227 60.317, 227 60.914 C 227 61.511, 228.755 62, 230.900 62 L 234.801 62 232.977 54.910 C 231.974 51.010, 230.984 47.650, 230.777 47.443 C 230.570 47.236, 229.635 49.938, 228.700 53.448 M 139.500 49.057 C 137.850 49.589, 133.034 51.706, 128.798 53.762 L 121.096 57.500 131.623 80.492 C 137.413 93.137, 142.311 103.644, 142.507 103.840 C 143.456 104.790, 160.706 96.060, 164.115 92.905 C 167.564 89.713, 168 88.784, 168 84.623 C 168 82.045, 167.380 78.451, 166.621 76.636 C 165.037 72.845, 160.611 69, 157.830 69 C 156.261 69, 156.110 68.663, 156.965 67.066 C 159.574 62.190, 156.938 53.971, 151.654 50.509 C 148.513 48.451, 143.311 47.829, 139.500 49.057 M 138.295 59.555 L 135.089 60.969 136.653 64.735 C 139.808 72.330, 139.597 72.160, 143.552 70.274 C 147.991 68.157, 148.992 64.807, 146.274 61.163 C 143.892 57.969, 142.516 57.691, 138.295 59.555 M 331.965 83.750 C 324.105 94.612, 317.302 103.990, 316.848 104.589 C 316.329 105.273, 317.669 106.860, 320.456 108.861 L 324.889 112.044 330.539 104.403 C 335.727 97.389, 336.322 96.894, 337.795 98.367 C 339.269 99.840, 339.211 100.757, 337.093 109.545 C 335.823 114.810, 334.946 119.230, 335.142 119.366 C 335.339 119.503, 337.433 121.105, 339.796 122.928 C 342.159 124.750, 344.242 126.074, 344.424 125.871 C 344.607 125.667, 345.734 121.225, 346.929 116 C 349.674 104, 349.970 103.019, 350.811 103.139 C 356.532 103.953, 363.105 99.276, 366.259 92.148 C 368.613 86.825, 367.998 82.339, 364.313 77.960 C 362.088 75.315, 347.761 64, 346.638 64 C 346.428 64, 339.826 72.888, 331.965 83.750 M 301.781 74.876 L 300.258 78.752 307.819 82.126 C 311.977 83.982, 315.670 85.626, 316.026 85.779 C 316.383 85.932, 317.390 84.234, 318.266 82.006 L 319.857 77.953 312.954 74.477 C 309.157 72.565, 305.432 71, 304.677 71 C 303.921 71, 302.618 72.744, 301.781 74.876 M 147.500 77.672 C 145.850 78.548, 144.335 79.407, 144.134 79.582 C 143.932 79.757, 144.804 82.401, 146.071 85.458 C 148.032 90.188, 148.682 90.925, 150.437 90.404 C 157.129 88.418, 158.923 83.715, 154.927 78.635 C 152.542 75.602, 151.625 75.483, 147.500 77.672 M 345.590 83.704 L 341.679 89.333 344.590 91.661 C 346.190 92.942, 348.092 93.992, 348.816 93.995 C 352.827 94.010, 357.671 87.689, 356.492 83.976 C 355.983 82.370, 350.993 77.912, 349.846 78.038 C 349.656 78.059, 347.740 80.609, 345.590 83.704 M 366.243 112.111 L 346.986 129.212 351.907 134.856 C 354.614 137.960, 359.037 142.950, 361.737 145.944 L 366.646 151.388 369.823 149.126 C 371.570 147.882, 373 146.371, 373 145.768 C 373 145.165, 370.316 141.653, 367.036 137.962 L 361.073 131.252 365.952 127.138 L 370.831 123.024 376.165 128.990 L 381.500 134.955 384.813 131.936 L 388.125 128.916 383.063 123.072 C 380.278 119.858, 378 116.990, 378 116.698 C 378 116.407, 379.829 114.720, 382.063 112.950 L 386.127 109.731 392.484 116.616 L 398.841 123.500 402.077 120.324 L 405.313 117.149 395.521 106.074 C 390.135 99.983, 385.678 95.002, 385.615 95.005 C 385.552 95.008, 376.834 102.706, 366.243 112.111 M 211 102.612 C 191.514 105.011, 170.036 112.367, 152.189 122.753 L 147.877 125.262 154.018 128.665 L 160.158 132.069 162.297 129.284 C 165.995 124.469, 171.320 119.925, 176.500 117.164 C 181.025 114.753, 182.497 114.504, 192 114.546 C 201.089 114.585, 203.359 114.954, 208.895 117.285 C 217.286 120.818, 224.303 125.336, 230.690 131.317 L 235.881 136.177 256.352 134.913 C 272.668 133.905, 278.228 133.899, 283.748 134.886 C 301.663 138.087, 314.320 149.007, 315.708 162.459 L 316.281 168.013 322.675 171.161 C 330.524 175.025, 337.193 180.766, 340.616 186.607 C 345.485 194.917, 343.592 206.701, 335.996 215.352 C 331.391 220.596, 327.562 222.324, 320.338 222.419 L 314.176 222.500 313.580 226.224 C 313.253 228.272, 311.648 231.470, 310.015 233.330 C 307.121 236.626, 307.074 236.850, 308.153 242.106 C 309.722 249.749, 308.044 255.219, 302.399 260.864 C 298.127 265.136, 298 265.446, 298 271.594 L 298 277.925 303.848 281.897 C 311.874 287.347, 318.464 294.968, 321.058 301.798 C 323.654 308.636, 324.732 322.656, 323.118 328.599 C 319.834 340.687, 308.852 347.351, 298.240 343.695 C 293.121 341.931, 293.247 341.201, 296.034 356.500 C 297.137 362.550, 298.088 369.637, 298.150 372.250 C 298.211 374.863, 298.573 377, 298.955 377 C 300.570 377, 318.018 364.771, 324 359.446 C 348.582 337.565, 364.165 310.790, 371.691 277.500 C 374.281 266.045, 374.277 232.137, 371.684 220 C 360.458 167.449, 322.754 125.122, 273 109.214 C 257.272 104.185, 248.896 102.846, 231 102.500 C 221.925 102.325, 212.925 102.375, 211 102.612 M 121.500 112.782 C 118.858 113.327, 114.001 117.960, 113.998 119.937 C 113.996 121.271, 115.458 121.454, 123.989 121.184 L 133.983 120.868 132.577 118.148 C 130.671 114.463, 125.498 111.957, 121.500 112.782 M 184.500 118.879 C 176.518 120.988, 166.571 129.127, 162.607 136.793 C 156.501 148.600, 159.635 162.671, 171.218 175.466 L 175.519 180.216 179.010 178.182 C 194.820 168.966, 224.911 168.300, 250.250 176.604 C 253.726 177.743, 255 178.675, 255 180.080 C 255 182.254, 253.403 182.489, 249.315 180.917 C 235.452 175.586, 210.247 173.409, 196.860 176.388 C 187.884 178.385, 177.558 183.089, 176.078 185.855 C 174.044 189.654, 175.278 199.262, 178.335 203.443 C 179.641 205.230, 179.945 205.205, 187.159 202.714 C 200.101 198.245, 210.962 196.692, 225 197.303 C 249.323 198.362, 268.089 205.849, 289.177 222.909 C 293.847 226.686, 299.179 230.559, 301.027 231.514 C 304.369 233.242, 304.399 233.237, 306.693 230.570 C 309.592 227.201, 309.721 221.695, 307.007 217.243 C 304.570 213.247, 296.960 205.813, 291.250 201.852 C 286.960 198.876, 285.655 196, 288.596 196 C 291.908 196, 303.636 205.550, 308.155 211.925 C 312.403 217.919, 312.493 217.967, 319.602 217.985 C 324.307 217.996, 326.475 217.480, 329.071 215.731 C 334.266 212.230, 338.312 204.901, 338.766 198.173 C 339.100 193.207, 338.771 191.913, 336.122 187.791 C 334.458 185.201, 331.162 181.657, 328.798 179.916 C 324.587 176.813, 316.125 172.507, 315.535 173.166 C 315.371 173.350, 313.874 176.200, 312.209 179.500 C 308.795 186.263, 302.537 194, 300.481 194 C 297.615 194, 298.210 192.066, 302.860 186.272 C 316.568 169.192, 313.919 152.580, 296.043 143.522 C 286.031 138.448, 279.480 137.616, 260.703 139.030 C 233.791 141.057, 203 138.096, 203 133.481 C 203 131.228, 204.402 131.023, 209.900 132.474 C 212.782 133.234, 218.145 134.135, 221.820 134.477 L 228.500 135.098 225.328 132.299 C 213.992 122.296, 195.086 116.082, 184.500 118.879 M 110.800 126.486 C 97.318 129.904, 83.104 139.929, 75.965 151.054 C 71.854 157.460, 68.201 167.436, 67.367 174.532 L 66.725 180 117.886 180 L 169.047 180 165.141 175.059 C 155.716 163.135, 152.731 148.857, 157.389 137.974 C 158.245 135.974, 149.418 130.562, 140.808 127.810 C 132.595 125.184, 118.405 124.558, 110.800 126.486 M 402.241 136.995 C 396.497 140.497, 395.008 144.220, 395.004 155.095 C 395 165.535, 393.859 168, 389.032 168 C 384.024 168, 382.173 160.458, 386.406 157.297 L 388.812 155.500 386.156 150.751 C 384.695 148.139, 383.215 146.002, 382.866 146.001 C 381.133 145.998, 375.198 154.132, 374.597 157.333 C 373.316 164.162, 377.347 173.364, 383.241 177.065 C 390.229 181.453, 401.783 177.066, 404.729 168.905 C 405.524 166.703, 405.763 162.673, 405.404 157.500 C 404.766 148.309, 405.875 145.750, 410.500 145.750 C 413.406 145.750, 416 148.168, 416 150.877 C 416 151.699, 415.032 153.402, 413.848 154.661 L 411.697 156.952 414.097 161.476 C 415.417 163.964, 416.869 166, 417.325 166 C 419.220 166, 423.913 160.036, 424.899 156.376 C 426.102 151.906, 425.185 147.404, 422.018 142.241 C 417.800 135.366, 408.819 132.984, 402.241 136.995 M 431.250 173.247 C 427.550 174.434, 427.455 174.872, 429.463 181.544 C 430.268 184.219, 430.831 186.463, 430.713 186.532 C 430.596 186.601, 421.613 189.292, 410.750 192.512 C 395.319 197.086, 391 198.731, 391 200.034 C 391 201.487, 392.871 207.959, 393.536 208.804 C 393.668 208.972, 402.038 206.647, 412.138 203.639 C 422.237 200.630, 431.344 198.019, 432.376 197.835 C 433.864 197.569, 434.555 198.535, 435.711 202.500 C 436.513 205.250, 437.480 207.826, 437.860 208.225 C 438.810 209.223, 446 206.915, 446 205.612 C 446 202.762, 436.366 172.018, 435.500 172.104 C 434.950 172.159, 433.038 172.673, 431.250 173.247 M 44.384 186.442 C 44.080 187.234, 43.987 188.697, 44.179 189.692 C 44.507 191.396, 46.852 191.513, 85.013 191.727 L 125.500 191.953 127.124 188.477 L 128.747 185 86.842 185 C 51.270 185, 44.854 185.218, 44.384 186.442 M 141.876 188.467 L 143.500 191.935 156.582 191.967 L 169.664 192 170.739 188.500 L 171.813 185 156.033 185 L 140.253 185 141.876 188.467 M 131.713 188.621 C 131.321 189.013, 131 190.771, 131 192.527 C 131 195.634, 130.856 195.739, 125.750 196.352 C 122.862 196.699, 117.384 196.987, 113.577 196.991 L 106.653 197 114.077 204.750 C 120.141 211.082, 122.500 214.559, 126.964 223.750 C 129.969 229.938, 132.766 235, 133.179 235 C 133.733 235, 149.219 225.383, 151.836 223.414 C 152.021 223.274, 149.390 217.387, 145.988 210.330 C 142.587 203.274, 139.285 195.475, 138.652 193 C 137.704 189.298, 137.050 188.448, 134.963 188.204 C 133.567 188.041, 132.104 188.229, 131.713 188.621 M 145 196.989 C 145 197.533, 147.577 203.156, 150.727 209.484 C 155.763 219.600, 156.699 220.907, 158.477 220.297 C 163.449 218.591, 167.974 220.522, 168.032 224.372 C 168.049 225.543, 168.724 227.374, 169.532 228.441 C 171.312 230.794, 171.405 233.378, 169.804 235.942 C 168.834 237.495, 168.963 238.516, 170.486 241.344 C 175.533 250.715, 175.504 250.790, 175.452 228.242 C 175.413 211.458, 175.106 206.928, 173.842 204.500 C 172.983 202.850, 171.984 200.262, 171.621 198.750 L 170.962 196 157.981 196 C 150.090 196, 145 196.388, 145 196.989 M 87.487 205.230 C 80.958 225.898, 79.298 250.847, 83.008 272.549 C 89.926 313.016, 112.351 347.884, 146.006 370.504 C 151.322 374.077, 155.901 377, 156.181 377 C 157.164 377, 158.500 350.325, 158.485 331 C 158.469 311.576, 158.456 311.463, 155.197 302.080 C 151.320 290.922, 145.777 279.985, 138.578 269.294 C 133.470 261.707, 133.255 261.528, 129.622 261.841 C 125.273 262.216, 123 260.696, 123 257.413 C 123 256.094, 122.126 254.603, 121 254 C 119.605 253.254, 119 251.906, 119 249.549 C 119 246.750, 119.731 245.607, 123.250 242.906 C 125.588 241.112, 127.870 239.332, 128.322 238.951 C 128.773 238.569, 126.214 232.411, 122.633 225.266 C 116.600 213.226, 115.516 211.716, 107.823 204.637 C 99.928 197.373, 99.293 197, 94.805 197 L 90.087 197 87.487 205.230 M 216 208.075 C 207.976 213.721, 197.094 217.976, 187.240 219.319 L 178.721 220.481 179.319 233.491 C 181.169 273.712, 198.182 294.030, 229.978 293.989 C 238.967 293.977, 246.004 293.156, 245.994 292.119 C 245.990 291.779, 244.672 290.752, 243.064 289.837 C 236.684 286.207, 235.085 275.732, 240.097 270.397 C 241.378 269.034, 242.892 266.490, 243.463 264.744 C 244.867 260.445, 250.198 257, 255.445 257 L 259.595 257 259.181 250.502 C 258.871 245.628, 259.177 243.379, 260.407 241.502 C 262.744 237.935, 266.616 238.162, 268.797 241.994 C 270.792 245.501, 270.791 245.501, 273.885 243.122 C 276.003 241.493, 276.194 240.777, 275.588 236.740 C 275.023 232.972, 274.472 232.084, 272.370 231.557 C 268.931 230.694, 262.253 226.475, 258 222.478 C 254.782 219.454, 253.887 219.160, 246.903 218.833 C 240.561 218.535, 238.498 217.977, 234.422 215.457 C 231.736 213.797, 228.180 210.567, 226.519 208.280 C 224.859 205.993, 223.050 204.141, 222.500 204.163 C 221.950 204.186, 219.025 205.946, 216 208.075 M 232.500 207.980 C 234.150 209.739, 236.850 211.891, 238.500 212.762 C 242.953 215.114, 252.496 214.822, 258 212.167 C 261.647 210.408, 261.931 210.104, 259.500 210.564 C 247.096 212.914, 240.392 212.086, 233.299 207.330 L 229.500 204.782 232.500 207.980 M 184.535 208.445 C 182.788 209.229, 181.283 210.849, 180.872 212.388 C 180.198 214.908, 180.325 215, 184.481 215 C 189.386 215, 199.810 211.922, 205 208.941 C 207.389 207.569, 207.706 207.180, 206 207.716 C 203.087 208.629, 192.411 208.644, 189.500 207.737 C 188.400 207.395, 186.166 207.713, 184.535 208.445 M 200.443 218.418 C 197.521 220.554, 199.403 221.464, 207.073 221.622 C 212.285 221.729, 214 221.431, 214 220.417 C 214 217.145, 204.167 215.695, 200.443 218.418 M 240.500 222.377 C 237.154 224.867, 238.932 225.691, 250.899 227.198 C 254.129 227.605, 254.673 225.481, 251.812 223.638 C 248.122 221.260, 242.798 220.667, 240.500 222.377 M 398 227.871 L 398 233.877 402.335 234.527 C 404.719 234.885, 407.147 235.475, 407.731 235.839 C 408.314 236.202, 408.951 239.386, 409.146 242.913 L 409.500 249.326 404.500 251.002 L 399.500 252.679 399.851 258.090 C 400.045 261.065, 400.328 263.633, 400.481 263.797 C 400.635 263.960, 411.951 259.846, 425.630 254.656 L 450.500 245.218 450.240 240.432 C 450.097 237.800, 449.833 235.499, 449.653 235.319 C 449.473 235.140, 438.565 232.268, 425.413 228.939 C 412.261 225.609, 400.712 222.655, 399.750 222.375 C 398.221 221.930, 398 222.624, 398 227.871 M 195.745 225.133 C 196.022 226.194, 197.206 227.770, 198.375 228.635 C 200.473 230.190, 200.465 230.204, 197.750 229.744 C 194.592 229.208, 194.371 229.648, 196.575 232.083 C 197.642 233.262, 198.207 236.046, 198.325 240.709 C 198.525 248.568, 200.500 252.586, 204.683 253.635 C 210.623 255.126, 215.735 243.734, 213.089 234.903 C 211.738 230.393, 208.524 227.010, 205.561 226.978 C 204.428 226.966, 201.642 226.112, 199.371 225.081 C 195.308 223.236, 195.249 223.237, 195.745 225.133 M 155.587 226.505 C 145.325 231.961, 123 247.834, 123 249.674 C 123 251.417, 128.882 249.090, 133.629 245.469 C 137.281 242.684, 140 242.268, 140 244.494 C 140 246.046, 133.177 251.492, 129.950 252.516 C 128.934 252.838, 127.813 254.013, 127.460 255.127 C 125.725 260.593, 130.309 258.707, 148.680 246.394 C 157.381 240.562, 165.064 235.074, 165.754 234.199 C 168.056 231.277, 165.362 230.814, 161.461 233.462 C 159.364 234.885, 157.165 235.888, 156.574 235.692 C 154.655 235.053, 154.834 232.188, 156.832 231.553 C 159.648 230.659, 164.219 226.163, 163.497 224.996 C 162.537 223.442, 160.680 223.797, 155.587 226.505 M 206.384 232.442 C 205.408 234.984, 206.459 237.491, 208.630 237.802 C 211.054 238.150, 212.282 235.256, 210.820 232.642 C 209.685 230.615, 207.129 230.499, 206.384 232.442 M 289.082 235.750 C 287.539 237.013, 285.976 241.240, 283.472 250.931 C 281.562 258.319, 280.020 264.619, 280.044 264.931 C 280.069 265.244, 281.002 263.769, 282.118 261.653 C 284.244 257.622, 284.423 257.588, 290.558 260.061 C 296.790 262.573, 303.025 256.744, 303.775 247.705 C 304.265 241.789, 302.419 236.830, 299.055 235.030 C 296.126 233.462, 291.468 233.798, 289.082 235.750 M 202.459 237.067 C 201.539 238.556, 202.606 239.365, 204.520 238.631 C 205.404 238.292, 205.847 237.561, 205.504 237.007 C 204.694 235.696, 203.289 235.723, 202.459 237.067 M 290.127 238.096 C 285.254 242.636, 284.986 249.759, 289.529 254.027 C 291.392 255.778, 292.315 256.085, 293.162 255.238 C 294.009 254.391, 293.879 253.464, 292.649 251.587 C 291.742 250.203, 291.030 247.817, 291.068 246.285 C 291.134 243.559, 291.158 243.548, 292.220 245.750 C 292.817 246.988, 293.926 248, 294.684 248 C 296.895 248, 297.356 245.192, 295.587 242.492 C 293.766 239.713, 294.093 239.417, 296.989 241.225 C 298.515 242.178, 299.216 242.184, 300.151 241.249 C 301.087 240.313, 300.947 239.599, 299.521 238.024 C 297.155 235.408, 292.978 235.441, 290.127 238.096 M 418.704 241.750 C 419.023 243.813, 419.366 245.609, 419.468 245.743 C 419.569 245.877, 422.768 244.914, 426.576 243.605 C 433.898 241.086, 433.811 240.798, 425.201 239.066 C 417.921 237.602, 418.056 237.546, 418.704 241.750 M 234.223 240.557 C 233 241.413, 232 242.763, 232 243.557 C 232 245.186, 235.551 245.536, 236.500 244 C 237.787 241.917, 242.616 242.990, 245.500 246 C 248.749 249.392, 249.800 249.684, 250.664 247.434 C 251.039 246.455, 250.017 244.581, 247.936 242.434 C 245.215 239.627, 243.863 239, 240.526 239 C 238.282 239, 235.445 239.701, 234.223 240.557 M 150.656 250.113 L 137.185 259.226 143.196 268.363 C 150.926 280.112, 155.350 288.931, 158.962 299.789 C 164.240 315.650, 164.684 324.791, 161.823 358.696 C 160.956 368.977, 160.985 372.874, 161.955 376.338 C 163.118 380.492, 163.605 380.956, 169.350 383.382 C 178.554 387.270, 190.139 391.035, 189.446 389.913 C 188.265 388.002, 186.028 371.489, 185.401 360.060 C 184.400 341.812, 187.524 317.933, 193.158 300.748 C 195.429 293.823, 196.147 293.061, 200.500 292.963 L 203.500 292.895 201 291.260 C 195.880 287.912, 186.310 277.332, 183.945 272.406 C 180.767 265.786, 165.705 241.091, 164.813 241.040 C 164.436 241.018, 158.065 245.101, 150.656 250.113 M 263.479 245.263 C 262.344 249.731, 263.873 256.759, 266.635 259.769 L 269.141 262.500 268.681 256.418 C 268.427 253.073, 267.311 248.573, 266.200 246.418 L 264.180 242.500 263.479 245.263 M 274.438 249.195 C 273.684 251.570, 273.659 265.992, 274.408 266.741 C 275.111 267.444, 278.185 252.334, 277.831 249.916 C 277.377 246.820, 275.330 246.385, 274.438 249.195 M 216 260.821 C 216 265.726, 221.052 274.281, 225.125 276.273 C 229.292 278.310, 233.153 277.452, 234.953 274.088 C 236.652 270.914, 237.273 263.758, 236.112 260.750 C 235.056 258.017, 234.991 258, 225.525 258 L 216 258 216 260.821 M 249.306 263.430 C 245.492 266.734, 247.161 268.246, 255.235 268.800 C 263.108 269.339, 265 270.870, 265 276.700 C 265 282.326, 261.714 286, 256.682 286 C 252.125 286, 248 281.955, 248 277.486 C 248 270.705, 242.707 270.713, 241.435 277.495 C 240.610 281.894, 242.215 284.559, 247.231 287.118 C 250.620 288.847, 252.570 289.148, 257.709 288.735 C 264.501 288.190, 266.147 289.076, 263.590 291.901 C 262.112 293.534, 262.124 293.803, 263.744 295.268 C 265.378 296.747, 265.932 296.480, 271.502 291.526 L 277.500 286.192 275.190 283.717 C 273.919 282.356, 272.119 281.300, 271.190 281.371 C 269.831 281.475, 269.386 280.302, 268.915 275.386 C 268.264 268.591, 265.374 263.473, 261.317 261.931 C 256.944 260.268, 252.285 260.850, 249.306 263.430 M 221 263.500 C 221 264.652, 222.278 265, 226.500 265 C 230.722 265, 232 264.652, 232 263.500 C 232 262.348, 230.722 262, 226.500 262 C 222.278 262, 221 262.348, 221 263.500 M 226.064 268.956 C 224.874 269.695, 224.853 270.117, 225.937 271.424 C 227.738 273.594, 229.717 273.397, 231.046 270.914 C 232.393 268.397, 231.592 267.264, 229.621 268.899 C 228.720 269.647, 228.067 269.712, 227.847 269.074 C 227.634 268.455, 226.944 268.409, 226.064 268.956 M 405.001 270.123 C 396.216 273.626, 392.005 289.059, 397.705 296.864 C 400.810 301.118, 405.425 302.710, 425 306.281 C 445.531 310.026, 444.112 310.273, 445.287 302.753 C 445.976 298.352, 448.027 299.144, 425.260 295.022 C 416.328 293.404, 408.115 291.597, 407.010 291.005 C 403.269 289.003, 405.170 279.965, 409.321 280.014 C 409.970 280.022, 418.822 281.559, 428.993 283.430 C 441.446 285.721, 447.698 286.488, 448.137 285.778 C 449.042 284.314, 450.174 276.840, 449.580 276.247 C 448.863 275.530, 412.924 269.020, 410 269.077 C 408.625 269.105, 406.375 269.575, 405.001 270.123 M 252 275.845 C 252 281.763, 259.224 283.938, 260.606 278.436 C 261.623 274.381, 260.461 273, 256.031 273 C 252.268 273, 252 273.189, 252 275.845 M 278.128 276.364 L 275.989 278.641 278.422 280.927 L 280.855 283.212 284.547 280.396 C 286.949 278.564, 287.761 277.431, 286.870 277.153 C 286.116 276.918, 284.323 276.132, 282.884 275.406 C 280.530 274.219, 280.052 274.316, 278.128 276.364 M 286.827 283.718 C 281.569 288.014, 267.612 301.234, 264.043 305.299 C 259.605 310.353, 262.407 310.154, 268.263 305 C 270.762 302.800, 273.300 301, 273.903 301 C 276.518 301, 274.658 305.186, 270.500 308.662 C 265.266 313.037, 264.090 317.043, 268.750 314.624 C 272.956 312.440, 296.405 289.464, 295.659 288.257 C 295.255 287.603, 293.808 288.311, 291.896 290.098 C 288.395 293.367, 287.195 293.672, 286.362 291.501 C 286.015 290.597, 287.021 288.849, 288.893 287.100 C 291.854 284.334, 293.048 281, 291.077 281 C 290.569 281, 288.656 282.223, 286.827 283.718 M 298.373 284.767 C 300.166 286.837, 300.226 289.215, 298.581 293.094 C 298.092 294.248, 299.399 295.816, 303.307 298.767 C 308.928 303.010, 315 311.010, 315 314.171 C 315 317.493, 312.386 316.076, 309.070 310.958 C 306.215 306.552, 296.654 298, 294.583 298 C 294.179 298, 289.625 301.898, 284.464 306.663 L 275.080 315.327 276.790 318.291 C 279.760 323.441, 292.140 336.031, 296.339 338.173 C 307.365 343.798, 317.844 337.097, 319.566 323.321 C 320.409 316.570, 317.905 304.220, 314.523 298.449 C 311.935 294.032, 305.966 288.430, 299.814 284.644 L 296.500 282.604 298.373 284.767 M 248.500 296.186 C 243.713 297.770, 240.175 298.132, 231 297.976 C 224.675 297.868, 214.819 297.717, 209.098 297.640 L 198.696 297.500 196.891 302.802 C 189.368 324.905, 187.384 354.067, 191.640 380 C 192.497 385.225, 193.267 389.950, 193.349 390.500 C 193.657 392.546, 205.052 394.121, 223.500 394.668 C 238.746 395.120, 244.278 394.904, 251.500 393.575 C 263.478 391.372, 276.299 387.595, 285.744 383.488 C 293.416 380.152, 293.469 380.102, 293.809 376.042 C 293.998 373.794, 292.930 364.428, 291.437 355.227 L 288.723 338.500 283.506 333 C 280.636 329.975, 276.761 325.459, 274.894 322.964 C 271.737 318.743, 271.305 318.497, 268.697 319.425 C 265.313 320.630, 262.648 319.290, 262.180 316.148 C 262.005 314.967, 261.474 314, 261.002 314 C 259.399 314, 257 310.867, 257 308.773 C 257 307.627, 258.175 305.148, 259.611 303.265 L 262.223 299.842 259.424 296.921 C 256.199 293.555, 256.406 293.569, 248.500 296.186 M 200 312 C 198.889 313.111, 198 315.333, 198 317 C 198 318.667, 198.889 320.889, 200 322 C 201.111 323.111, 203.333 324, 205 324 C 206.667 324, 208.889 323.111, 210 322 C 211.111 320.889, 212 318.667, 212 317 C 212 315.333, 211.111 313.111, 210 312 C 208.889 310.889, 206.667 310, 205 310 C 203.333 310, 201.111 310.889, 200 312 M 202.389 315.430 C 201.393 318.025, 202.788 320.169, 205.246 319.820 C 206.898 319.585, 207.500 318.833, 207.500 317 C 207.500 315.167, 206.898 314.415, 205.246 314.180 C 203.893 313.988, 202.750 314.488, 202.389 315.430 M 199.364 336.170 C 191.509 339.973, 196.974 352.324, 205.034 348.986 C 210.748 346.619, 210.965 338.672, 205.385 336.130 C 202.480 334.806, 202.176 334.808, 199.364 336.170 M 200.547 340.342 C 198.451 341.875, 198.981 344.672, 201.555 345.659 C 203.942 346.576, 206.744 343.402, 205.412 341.291 C 203.954 338.981, 202.734 338.743, 200.547 340.342 M 198 364 C 195.446 366.554, 195.355 372.106, 197.829 374.345 C 200.446 376.714, 205.505 376.447, 207.961 373.811 C 213.986 367.345, 204.247 357.753, 198 364 M 200.389 367.430 C 199.393 370.025, 200.788 372.169, 203.246 371.820 C 204.898 371.585, 205.500 370.833, 205.500 369 C 205.500 367.167, 204.898 366.415, 203.246 366.180 C 201.893 365.988, 200.750 366.488, 200.389 367.430" stroke="none" fill="#f2c08c" fill-rule="evenodd"/></svg>